<svg width="48" height="48" viewBox="0 0 48 48" fill="none" xmlns="http://www.w3.org/2000/svg">
<path fill-rule="evenodd" clip-rule="evenodd" d="M12.7871 9.31401C12.7871 6.37916 15.1663 4 18.1011 4H38.6859C41.6208 4 43.9999 6.37916 43.9999 9.31401V38.686C43.9999 41.6208 41.6208 44 38.6859 44H20.778V41.1014H38.6859C40.02 41.1014 41.1014 40.02 41.1014 38.686V9.31401C41.1014 7.97999 40.02 6.89855 38.6859 6.89855H18.1011C16.7671 6.89855 15.6857 7.97999 15.6857 9.31401V15.2128H12.7871V9.31401Z" fill="#FFCB46"/>
<path fill-rule="evenodd" clip-rule="evenodd" d="M4 19.0774C4 16.1426 6.37916 13.7634 9.31401 13.7634H19.1589C22.0938 13.7634 24.4729 16.1426 24.4729 19.0774V38.6859C24.4729 41.6207 22.0938 43.9999 19.1589 43.9999H9.31401C6.37916 43.9999 4 41.6207 4 38.6859V19.0774ZM9.31401 16.662C7.97999 16.662 6.89855 17.7434 6.89855 19.0774V38.6859C6.89855 40.0199 7.97999 41.1013 9.31401 41.1013H19.1589C20.4929 41.1013 21.5744 40.0199 21.5744 38.6859V19.0774C21.5744 17.7434 20.4929 16.662 19.1589 16.662H9.31401Z" fill="#FFCB46"/>
<path fill-rule="evenodd" clip-rule="evenodd" d="M11.811 36.6927C11.811 35.8923 12.4599 35.2434 13.2603 35.2434H15.213C16.0134 35.2434 16.6623 35.8923 16.6623 36.6927C16.6623 37.4931 16.0134 38.142 15.213 38.142H13.2603C12.4599 38.142 11.811 37.4931 11.811 36.6927Z" fill="#FFCB46"/>
<path fill-rule="evenodd" clip-rule="evenodd" d="M26.4561 36.6927C26.4561 35.8923 27.1049 35.2434 27.9053 35.2434H29.858C30.6585 35.2434 31.3073 35.8923 31.3073 36.6927C31.3073 37.4931 30.6585 38.142 29.858 38.142H27.9053C27.1049 38.142 26.4561 37.4931 26.4561 36.6927Z" fill="#FFCB46"/>
</svg>
