<svg width="48" height="48" viewBox="0 0 48 48" fill="none" xmlns="http://www.w3.org/2000/svg">
<path fill-rule="evenodd" clip-rule="evenodd" d="M9.92661 11.1376C8.38629 11.1376 7.13761 12.3863 7.13761 13.9266V34.844C7.13761 36.3844 8.38629 37.633 9.92661 37.633H36.0734C37.6137 37.633 38.8624 36.3844 38.8624 34.844V13.9266C38.8624 12.3863 37.6137 11.1376 36.0734 11.1376H9.92661ZM4 13.9266C4 10.6534 6.65343 8 9.92661 8H36.0734C39.3466 8 42 10.6534 42 13.9266V34.844C42 38.1172 39.3466 40.7706 36.0734 40.7706H9.92661C6.65343 40.7706 4 38.1172 4 34.844V13.9266Z" fill="#FFCB46"/>
<path fill-rule="evenodd" clip-rule="evenodd" d="M16.6614 15.4319C17.2741 14.8192 18.2674 14.8192 18.88 15.4319L23.0001 19.5519L27.1201 15.4319C27.7328 14.8192 28.7261 14.8192 29.3387 15.4319C29.9514 16.0446 29.9514 17.0379 29.3387 17.6505L24.1094 22.8799C23.4967 23.4925 22.5034 23.4925 21.8908 22.8799L16.6614 17.6505C16.0487 17.0379 16.0487 16.0446 16.6614 15.4319Z" fill="#FFCB46"/>
<path fill-rule="evenodd" clip-rule="evenodd" d="M15.3303 23.5136C15.3303 22.6472 16.0327 21.9448 16.8991 21.9448H29.101C29.9674 21.9448 30.6698 22.6472 30.6698 23.5136C30.6698 24.3801 29.9674 25.0824 29.101 25.0824H16.8991C16.0327 25.0824 15.3303 24.3801 15.3303 23.5136Z" fill="#FFCB46"/>
<path fill-rule="evenodd" clip-rule="evenodd" d="M15.3303 28.743C15.3303 27.8766 16.0327 27.1742 16.8991 27.1742H29.101C29.9674 27.1742 30.6698 27.8766 30.6698 28.743C30.6698 29.6094 29.9674 30.3118 29.101 30.3118H16.8991C16.0327 30.3118 15.3303 29.6094 15.3303 28.743Z" fill="#FFCB46"/>
<path fill-rule="evenodd" clip-rule="evenodd" d="M23 21.9448C23.8664 21.9448 24.5688 22.6472 24.5688 23.5136V33.1008C24.5688 33.9672 23.8664 34.6696 23 34.6696C22.1335 34.6696 21.4312 33.9672 21.4312 33.1008V23.5136C21.4312 22.6472 22.1335 21.9448 23 21.9448Z" fill="#FFCB46"/>
</svg>
