<svg width="48" height="48" viewBox="0 0 48 48" fill="none" xmlns="http://www.w3.org/2000/svg">
<path fill-rule="evenodd" clip-rule="evenodd" d="M4.02982 18.2726C3.73392 15.7839 5.67772 13.5953 8.18393 13.5953H10.6735C11.4108 13.5953 12.0086 14.193 12.0086 14.9304C12.0086 15.6678 11.4108 16.2655 10.6735 16.2655H8.18393C7.27742 16.2655 6.57435 17.0571 6.68138 17.9573L9.26438 39.6817L7.93861 39.8393L9.26438 39.6817C9.29811 39.9653 9.53857 40.1789 9.82415 40.1789H38.6559C38.9462 40.1789 39.189 39.9585 39.217 39.6695C39.217 39.6694 39.217 39.6694 39.217 39.6694L41.3224 17.9245C41.4084 17.0353 40.7095 16.2655 39.8162 16.2655H37.2571C36.5197 16.2655 35.922 15.6678 35.922 14.9304C35.922 14.193 36.5197 13.5953 37.2571 13.5953H39.8162C42.2859 13.5953 44.2181 15.7235 43.9802 18.1817L43.9802 18.1818L41.8748 39.9268L41.8748 39.9268C41.7143 41.5844 40.3213 42.8491 38.6559 42.8491H9.82415C8.18578 42.8491 6.80626 41.6239 6.61283 39.997L4.02982 18.2726Z" fill="#1C6BDB"/>
<path fill-rule="evenodd" clip-rule="evenodd" d="M4.59131 22.5257C4.59131 21.7883 5.18906 21.1906 5.92642 21.1906H42.0042C42.7416 21.1906 43.3393 21.7883 43.3393 22.5257C43.3393 23.263 42.7416 23.8608 42.0042 23.8608H5.92642C5.18906 23.8608 4.59131 23.263 4.59131 22.5257Z" fill="#1C6BDB"/>
<path fill-rule="evenodd" clip-rule="evenodd" d="M14.0854 29.1717C14.0854 28.4343 14.6832 27.8365 15.4206 27.8365H32.51C33.2474 27.8365 33.8451 28.4343 33.8451 29.1717C33.8451 29.909 33.2474 30.5068 32.51 30.5068H15.4206C14.6832 30.5068 14.0854 29.909 14.0854 29.1717Z" fill="#1C6BDB"/>
<path fill-rule="evenodd" clip-rule="evenodd" d="M15.9844 35.8174C15.9844 35.0801 16.5821 34.4823 17.3195 34.4823H30.6113C31.3487 34.4823 31.9464 35.0801 31.9464 35.8174C31.9464 36.5548 31.3487 37.1525 30.6113 37.1525H17.3195C16.5821 37.1525 15.9844 36.5548 15.9844 35.8174Z" fill="#1C6BDB"/>
<path fill-rule="evenodd" clip-rule="evenodd" d="M17.4085 11.0226C18.8648 8.20714 21.1133 5.99994 23.9651 5.99994C26.8169 5.99994 29.0654 8.20714 30.5217 11.0226C32.0129 13.9056 32.8955 17.7957 32.8955 22.0194C32.8955 22.1968 32.8939 22.3734 32.8909 22.5491C32.8781 23.2772 32.2842 23.8608 31.556 23.8608H16.3742C15.646 23.8608 15.0521 23.2772 15.0393 22.5491C15.0363 22.3734 15.0347 22.1968 15.0347 22.0194C15.0347 17.7957 15.9173 13.9056 17.4085 11.0226ZM17.7174 21.1906H30.2128C30.1058 17.6435 29.3175 14.5067 28.1499 12.2494C26.8573 9.75017 25.3081 8.67017 23.9651 8.67017C22.6221 8.67017 21.0729 9.75017 19.7803 12.2494C18.6127 14.5067 17.8244 17.6435 17.7174 21.1906Z" fill="#1C6BDB"/>
</svg>
