<svg width="48" height="48" viewBox="0 0 48 48" fill="none" xmlns="http://www.w3.org/2000/svg">
<path fill-rule="evenodd" clip-rule="evenodd" d="M4 24C4 12.9543 12.9543 4 24 4C35.0457 4 44 12.9543 44 24C44 35.0457 35.0457 44 24 44C12.9543 44 4 35.0457 4 24ZM24 6.7907C14.4956 6.7907 6.7907 14.4956 6.7907 24C6.7907 33.5044 14.4956 41.2093 24 41.2093C33.5044 41.2093 41.2093 33.5044 41.2093 24C41.2093 14.4956 33.5044 6.7907 24 6.7907Z" fill="#1C6BDB"/>
<path fill-rule="evenodd" clip-rule="evenodd" d="M23.9998 11.4418C24.7705 11.4418 25.3952 12.0665 25.3952 12.8371V15.6278C25.3952 16.3984 24.7705 17.0232 23.9998 17.0232C23.2292 17.0232 22.6045 16.3984 22.6045 15.6278V12.8371C22.6045 12.0665 23.2292 11.4418 23.9998 11.4418Z" fill="#1C6BDB"/>
<path fill-rule="evenodd" clip-rule="evenodd" d="M32.88 15.1199C33.4249 15.6648 33.4249 16.5483 32.88 17.0933L30.9067 19.0666C30.3618 19.6115 29.4783 19.6115 28.9333 19.0666C28.3884 18.5216 28.3884 17.6382 28.9333 17.0932L30.9066 15.1199C31.4516 14.575 32.3351 14.575 32.88 15.1199Z" fill="#1C6BDB"/>
<path fill-rule="evenodd" clip-rule="evenodd" d="M30.9768 23.9999C30.9768 23.2293 31.6015 22.6046 32.3722 22.6046H35.1629C35.9335 22.6046 36.5582 23.2293 36.5582 23.9999C36.5582 24.7705 35.9335 25.3953 35.1629 25.3953H32.3722C31.6015 25.3953 30.9768 24.7705 30.9768 23.9999Z" fill="#1C6BDB"/>
<path fill-rule="evenodd" clip-rule="evenodd" d="M28.9333 28.9332C29.4783 28.3883 30.3618 28.3883 30.9067 28.9332L32.88 30.9065C33.4249 31.4514 33.4249 32.3349 32.88 32.8798C32.3351 33.4248 31.4516 33.4248 30.9066 32.8798L28.9333 30.9065C28.3884 30.3616 28.3884 29.4781 28.9333 28.9332Z" fill="#1C6BDB"/>
<path fill-rule="evenodd" clip-rule="evenodd" d="M23.9998 30.9768C24.7705 30.9768 25.3952 31.6015 25.3952 32.3722V35.1629C25.3952 35.9335 24.7705 36.5582 23.9998 36.5582C23.2292 36.5582 22.6045 35.9335 22.6045 35.1629V32.3722C22.6045 31.6015 23.2292 30.9768 23.9998 30.9768Z" fill="#1C6BDB"/>
<path fill-rule="evenodd" clip-rule="evenodd" d="M19.0665 28.9332C19.6114 29.4781 19.6114 30.3616 19.0665 30.9065L17.0932 32.8798C16.5483 33.4248 15.6648 33.4248 15.1199 32.8798C14.575 32.3349 14.575 31.4514 15.1199 30.9065L17.0932 28.9332C17.6381 28.3883 18.5216 28.3883 19.0665 28.9332Z" fill="#1C6BDB"/>
<path fill-rule="evenodd" clip-rule="evenodd" d="M11.4419 23.9999C11.4419 23.2293 12.0666 22.6046 12.8372 22.6046H15.6279C16.3986 22.6046 17.0233 23.2293 17.0233 23.9999C17.0233 24.7705 16.3986 25.3953 15.6279 25.3953H12.8372C12.0666 25.3953 11.4419 24.7705 11.4419 23.9999Z" fill="#1C6BDB"/>
<path fill-rule="evenodd" clip-rule="evenodd" d="M15.1199 15.1199C15.6648 14.575 16.5483 14.575 17.0932 15.1199L19.0665 17.0932C19.6114 17.6382 19.6114 18.5216 19.0665 19.0666C18.5216 19.6115 17.6381 19.6115 17.0932 19.0666L15.1199 17.0933C14.575 16.5483 14.575 15.6648 15.1199 15.1199Z" fill="#1C6BDB"/>
</svg>
