<svg width="48" height="48" viewBox="0 0 48 48" fill="none" xmlns="http://www.w3.org/2000/svg">
<path fill-rule="evenodd" clip-rule="evenodd" d="M24.3256 8.51163C21.3201 8.51163 18.8837 10.948 18.8837 13.9535C18.8837 16.9589 21.3201 19.3953 24.3256 19.3953C27.331 19.3953 29.7674 16.9589 29.7674 13.9535C29.7674 10.948 27.331 8.51163 24.3256 8.51163ZM16.3721 13.9535C16.3721 9.5609 19.933 6 24.3256 6C28.7181 6 32.279 9.5609 32.279 13.9535C32.279 18.3461 28.7181 21.907 24.3256 21.907C19.933 21.907 16.3721 18.3461 16.3721 13.9535Z" fill="#FFCB46"/>
<path fill-rule="evenodd" clip-rule="evenodd" d="M8 40.7442C8 31.7278 15.3092 24.4186 24.3256 24.4186C33.3419 24.4186 40.6511 31.7278 40.6511 40.7442C40.6511 41.4377 40.0889 42 39.3953 42C38.7018 42 38.1395 41.4377 38.1395 40.7442C38.1395 33.1149 31.9548 26.9302 24.3256 26.9302C16.6964 26.9302 10.5116 33.1149 10.5116 40.7442C10.5116 41.4377 9.94938 42 9.25581 42C8.56225 42 8 41.4377 8 40.7442Z" fill="#FFCB46"/>
<path fill-rule="evenodd" clip-rule="evenodd" d="M24.3254 24.4186C24.8767 24.4186 25.3635 24.7781 25.5257 25.3051L28.8745 36.1888C28.9967 36.5861 28.9145 37.0181 28.6548 37.3426L25.306 41.5287C25.0677 41.8266 24.7069 42 24.3254 42C23.9439 42 23.5831 41.8266 23.3447 41.5287L19.9959 37.3426C19.7363 37.0181 19.654 36.5861 19.7763 36.1888L23.1251 25.3051C23.2872 24.7781 23.7741 24.4186 24.3254 24.4186ZM22.3722 36.2924L24.3254 38.7339L26.2785 36.2924L24.3254 29.9446L22.3722 36.2924Z" fill="#FFCB46"/>
</svg>
