<svg width="40" height="40" viewBox="0 0 40 40" fill="none" xmlns="http://www.w3.org/2000/svg">
<path fill-rule="evenodd" clip-rule="evenodd" d="M0 20C0 8.9543 8.9543 0 20 0C31.0457 0 40 8.9543 40 20C40 31.0457 31.0457 40 20 40C8.9543 40 0 31.0457 0 20ZM20 2.7907C10.4956 2.7907 2.7907 10.4956 2.7907 20C2.7907 29.5044 10.4956 37.2093 20 37.2093C29.5044 37.2093 37.2093 29.5044 37.2093 20C37.2093 10.4956 29.5044 2.7907 20 2.7907Z" fill="#1C6BDB"/>
<path fill-rule="evenodd" clip-rule="evenodd" d="M19.9998 7.44177C20.7705 7.44177 21.3952 8.06649 21.3952 8.83712V11.6278C21.3952 12.3984 20.7705 13.0232 19.9998 13.0232C19.2292 13.0232 18.6045 12.3984 18.6045 11.6278V8.83712C18.6045 8.06649 19.2292 7.44177 19.9998 7.44177Z" fill="#1C6BDB"/>
<path fill-rule="evenodd" clip-rule="evenodd" d="M28.88 11.1199C29.4249 11.6648 29.4249 12.5483 28.88 13.0933L26.9067 15.0666C26.3618 15.6115 25.4783 15.6115 24.9333 15.0666C24.3884 14.5216 24.3884 13.6382 24.9333 13.0932L26.9066 11.1199C27.4516 10.575 28.3351 10.575 28.88 11.1199Z" fill="#1C6BDB"/>
<path fill-rule="evenodd" clip-rule="evenodd" d="M26.9768 19.9999C26.9768 19.2293 27.6015 18.6046 28.3722 18.6046H31.1629C31.9335 18.6046 32.5582 19.2293 32.5582 19.9999C32.5582 20.7705 31.9335 21.3953 31.1629 21.3953H28.3722C27.6015 21.3953 26.9768 20.7705 26.9768 19.9999Z" fill="#1C6BDB"/>
<path fill-rule="evenodd" clip-rule="evenodd" d="M24.9333 24.9332C25.4783 24.3883 26.3618 24.3883 26.9067 24.9332L28.88 26.9065C29.4249 27.4514 29.4249 28.3349 28.88 28.8798C28.3351 29.4248 27.4516 29.4248 26.9066 28.8798L24.9333 26.9065C24.3884 26.3616 24.3884 25.4781 24.9333 24.9332Z" fill="#1C6BDB"/>
<path fill-rule="evenodd" clip-rule="evenodd" d="M19.9998 26.9768C20.7705 26.9768 21.3952 27.6015 21.3952 28.3722V31.1629C21.3952 31.9335 20.7705 32.5582 19.9998 32.5582C19.2292 32.5582 18.6045 31.9335 18.6045 31.1629V28.3722C18.6045 27.6015 19.2292 26.9768 19.9998 26.9768Z" fill="#1C6BDB"/>
<path fill-rule="evenodd" clip-rule="evenodd" d="M15.0665 24.9332C15.6114 25.4781 15.6114 26.3616 15.0665 26.9065L13.0932 28.8798C12.5483 29.4248 11.6648 29.4248 11.1199 28.8798C10.575 28.3349 10.575 27.4514 11.1199 26.9065L13.0932 24.9332C13.6381 24.3883 14.5216 24.3883 15.0665 24.9332Z" fill="#1C6BDB"/>
<path fill-rule="evenodd" clip-rule="evenodd" d="M7.44189 19.9999C7.44189 19.2293 8.06661 18.6046 8.83724 18.6046H11.6279C12.3986 18.6046 13.0233 19.2293 13.0233 19.9999C13.0233 20.7705 12.3986 21.3953 11.6279 21.3953H8.83724C8.06661 21.3953 7.44189 20.7705 7.44189 19.9999Z" fill="#1C6BDB"/>
<path fill-rule="evenodd" clip-rule="evenodd" d="M11.1199 11.1199C11.6648 10.575 12.5483 10.575 13.0932 11.1199L15.0665 13.0932C15.6114 13.6382 15.6114 14.5216 15.0665 15.0666C14.5216 15.6115 13.6381 15.6115 13.0932 15.0666L11.1199 13.0933C10.575 12.5483 10.575 11.6648 11.1199 11.1199Z" fill="#1C6BDB"/>
</svg>
