<svg width="48" height="48" viewBox="0 0 48 48" fill="none" xmlns="http://www.w3.org/2000/svg">
<path fill-rule="evenodd" clip-rule="evenodd" d="M24 6.7907C14.4956 6.7907 6.7907 14.4956 6.7907 24C6.7907 33.5044 14.4956 41.2093 24 41.2093C33.5044 41.2093 41.2093 33.5044 41.2093 24C41.2093 14.4956 33.5044 6.7907 24 6.7907ZM4 24C4 12.9543 12.9543 4 24 4C35.0457 4 44 12.9543 44 24C44 35.0457 35.0457 44 24 44C12.9543 44 4 35.0457 4 24Z" fill="#1C6BDB"/>
<path fill-rule="evenodd" clip-rule="evenodd" d="M11.4419 19.3488C11.4419 18.5781 12.0666 17.9534 12.8372 17.9534H20.2791C21.0497 17.9534 21.6745 18.5781 21.6745 19.3488C21.6745 20.1194 21.0497 20.7441 20.2791 20.7441H12.8372C12.0666 20.7441 11.4419 20.1194 11.4419 19.3488Z" fill="#1C6BDB"/>
<path fill-rule="evenodd" clip-rule="evenodd" d="M16.5579 17.9534C17.3286 17.9534 17.9533 18.5781 17.9533 19.3488V28.6511C17.9533 29.4217 17.3286 30.0465 16.5579 30.0465C15.7873 30.0465 15.1626 29.4217 15.1626 28.6511V19.3488C15.1626 18.5781 15.7873 17.9534 16.5579 17.9534Z" fill="#1C6BDB"/>
<path fill-rule="evenodd" clip-rule="evenodd" d="M25.3857 18.0368C25.9381 17.8369 26.5565 18.0043 26.9326 18.4556L30.5118 22.7506L34.0911 18.4556C34.4672 18.0043 35.0856 17.8369 35.638 18.0368C36.1904 18.2368 36.5584 18.7614 36.5584 19.3489V28.6512C36.5584 29.4218 35.9336 30.0465 35.163 30.0465C34.3924 30.0465 33.7677 29.4218 33.7677 28.6512V23.2029L31.5838 25.8235C31.3187 26.1417 30.926 26.3256 30.5118 26.3256C30.0977 26.3256 29.705 26.1417 29.4399 25.8235L27.256 23.2029V28.6512C27.256 29.4218 26.6313 30.0465 25.8607 30.0465C25.0901 30.0465 24.4653 29.4218 24.4653 28.6512V19.3489C24.4653 18.7614 24.8333 18.2368 25.3857 18.0368Z" fill="#1C6BDB"/>
</svg>
