<svg width="102" height="41" viewBox="0 0 102 41" fill="none" xmlns="http://www.w3.org/2000/svg">
<path fill-rule="evenodd" clip-rule="evenodd" d="M58.3241 9.82819L63.7768 15.2798L73.2575 15.28L58.3704 0.394775L58.3241 0.441101L43.3907 15.28L52.8714 15.2798L58.3241 9.82819Z" fill="#645DD1"/>
<path d="M58.3668 0.394775L43.387 15.28L52.8677 15.2798L63.0629 5.08927L58.3668 0.394775Z" fill="#0B1832"/>
<path d="M29.9934 6.85331L36.697 0.149583L51.2036 0.149475L44.5042 6.85331H36.6971L36.697 14.7401L29.9931 21.4589L29.9934 6.85331Z" fill="#645DD1"/>
<path d="M29.9934 6.85336L36.697 0.149628V14.7401L29.9931 21.459L29.9934 6.85336Z" fill="#0B1832"/>
<path d="M6.33925 36.5609H4.40138V39.8983H0.848602V27.338H6.59046C7.72687 27.338 8.71375 27.5294 9.55111 27.9122C10.3885 28.283 11.0344 28.8213 11.489 29.5271C11.9435 30.2209 12.1708 31.0403 12.1708 31.9853C12.1708 32.8944 11.9555 33.6899 11.5249 34.3718C11.1062 35.0417 10.5021 35.568 9.71259 35.9508L12.422 39.8983H8.61805L6.33925 36.5609ZM8.58217 31.9853C8.58217 31.3992 8.39675 30.9446 8.02593 30.6216C7.6551 30.2986 7.10484 30.1372 6.37514 30.1372H4.40138V33.8155H6.37514C7.10484 33.8155 7.6551 33.66 8.02593 33.349C8.39675 33.026 8.58217 32.5715 8.58217 31.9853Z" fill="#0B1832"/>
<path d="M22.5463 37.458H17.235L16.2482 39.8983H12.6236L18.1681 27.338H21.667L27.2295 39.8983H23.5331L22.5463 37.458ZM21.5056 34.8383L19.8907 30.819L18.2758 34.8383H21.5056Z" fill="#0B1832"/>
<path d="M41.8739 33.349H45.0139V38.5526C44.2962 39.0669 43.4708 39.4617 42.5378 39.7368C41.6047 40.012 40.6717 40.1495 39.7386 40.1495C38.4228 40.1495 37.2385 39.8744 36.1858 39.3241C35.1332 38.7619 34.3078 37.9844 33.7097 36.9915C33.1116 35.9986 32.8125 34.8742 32.8125 33.6182C32.8125 32.3621 33.1116 31.2377 33.7097 30.2448C34.3078 29.252 35.1391 28.4804 36.2038 27.9301C37.2684 27.3679 38.4706 27.0868 39.8104 27.0868C40.9827 27.0868 42.0354 27.2842 42.9684 27.6789C43.9015 28.0737 44.679 28.6419 45.301 29.3835L43.0402 31.4291C42.1909 30.496 41.1741 30.0295 39.9898 30.0295C38.9132 30.0295 38.046 30.3585 37.388 31.0164C36.7301 31.6623 36.4012 32.5296 36.4012 33.6182C36.4012 34.312 36.5507 34.934 36.8497 35.4843C37.1488 36.0226 37.5675 36.4472 38.1058 36.7582C38.6441 37.0573 39.2601 37.2068 39.9539 37.2068C40.6358 37.2068 41.2758 37.0693 41.8739 36.7941V33.349Z" fill="#0B1832"/>
<path d="M52.757 36.5609H50.8192V39.8983H47.2664V27.338H53.0083C54.1447 27.338 55.1315 27.5294 55.9689 27.9122C56.8063 28.283 57.4522 28.8213 57.9068 29.5271C58.3613 30.2209 58.5886 31.0403 58.5886 31.9853C58.5886 32.8944 58.3733 33.6899 57.9427 34.3718C57.524 35.0417 56.9199 35.568 56.1304 35.9508L58.8398 39.8983H55.0358L52.757 36.5609ZM55 31.9853C55 31.3992 54.8145 30.9446 54.4437 30.6216C54.0729 30.2986 53.5226 30.1372 52.7929 30.1372H50.8192V33.8155H52.7929C53.5226 33.8155 54.0729 33.66 54.4437 33.349C54.8145 33.026 55 32.5715 55 31.9853Z" fill="#0B1832"/>
<path d="M66.8826 40.1495C65.5548 40.1495 64.3586 39.8684 63.294 39.3062C62.2413 38.744 61.4099 37.9664 60.7999 36.9736C60.2017 35.9807 59.9027 34.8622 59.9027 33.6182C59.9027 32.3741 60.2017 31.2556 60.7999 30.2628C61.4099 29.2699 62.2413 28.4924 63.294 27.9301C64.3586 27.3679 65.5548 27.0868 66.8826 27.0868C68.2104 27.0868 69.4007 27.3679 70.4534 27.9301C71.518 28.4924 72.3494 29.2699 72.9475 30.2628C73.5575 31.2556 73.8626 32.3741 73.8626 33.6182C73.8626 34.8622 73.5575 35.9807 72.9475 36.9736C72.3494 37.9664 71.518 38.744 70.4534 39.3062C69.4007 39.8684 68.2104 40.1495 66.8826 40.1495ZM66.8826 37.2068C67.5166 37.2068 68.0908 37.0573 68.6052 36.7582C69.1196 36.4592 69.5263 36.0405 69.8253 35.5022C70.1244 34.9519 70.2739 34.3239 70.2739 33.6182C70.2739 32.9124 70.1244 32.2904 69.8253 31.7521C69.5263 31.2018 69.1196 30.7771 68.6052 30.4781C68.0908 30.179 67.5166 30.0295 66.8826 30.0295C66.2486 30.0295 65.6744 30.179 65.1601 30.4781C64.6457 30.7771 64.239 31.2018 63.9399 31.7521C63.6409 32.2904 63.4913 32.9124 63.4913 33.6182C63.4913 34.3239 63.6409 34.9519 63.9399 35.5022C64.239 36.0405 64.6457 36.4592 65.1601 36.7582C65.6744 37.0573 66.2486 37.2068 66.8826 37.2068Z" fill="#0B1832"/>
<path d="M81.519 40.1495C79.6529 40.1495 78.1995 39.6411 77.1588 38.6243C76.1301 37.6076 75.6157 36.1661 75.6157 34.3V27.338H79.1685V34.1923C79.1685 36.202 79.964 37.2068 81.5549 37.2068C83.1339 37.2068 83.9234 36.202 83.9234 34.1923V27.338H87.4224V34.3C87.4224 36.1661 86.902 37.6076 85.8613 38.6243C84.8326 39.6411 83.3851 40.1495 81.519 40.1495Z" fill="#0B1832"/>
<path d="M95.571 27.338C96.7074 27.338 97.6943 27.5294 98.5317 27.9122C99.369 28.283 100.015 28.8213 100.47 29.5271C100.924 30.2209 101.151 31.0403 101.151 31.9853C101.151 32.9303 100.924 33.7497 100.47 34.4435C100.015 35.1374 99.369 35.6757 98.5317 36.0584C97.6943 36.4293 96.7074 36.6147 95.571 36.6147H93.382V39.8983H89.8292V27.338H95.571ZM95.3557 33.8155C96.0854 33.8155 96.6357 33.66 97.0065 33.349C97.3773 33.026 97.5628 32.5715 97.5628 31.9853C97.5628 31.3992 97.3773 30.9446 97.0065 30.6216C96.6357 30.2986 96.0854 30.1372 95.3557 30.1372H93.382V33.8155H95.3557Z" fill="#0B1832"/>
</svg>
