<svg width="48" height="48" viewBox="0 0 48 48" fill="none" xmlns="http://www.w3.org/2000/svg">
<path fill-rule="evenodd" clip-rule="evenodd" d="M11.3333 29.3334C10.2814 29.3334 9.42857 30.1861 9.42857 31.2381V36.6667C9.42857 37.7187 10.2814 38.5714 11.3333 38.5714H36.6667C37.7186 38.5714 38.5714 37.7187 38.5714 36.6667V31.2381C38.5714 30.1861 37.7186 29.3334 36.6667 29.3334H11.3333ZM6 31.2381C6 28.2926 8.38781 25.9048 11.3333 25.9048H36.6667C39.6122 25.9048 42 28.2926 42 31.2381V36.6667C42 39.6122 39.6122 42 36.6667 42H11.3333C8.38781 42 6 39.6122 6 36.6667V31.2381Z" fill="#FFCB46"/>
<path fill-rule="evenodd" clip-rule="evenodd" d="M6 12.2381C6 9.2926 8.38781 6.90479 11.3333 6.90479H20.3809C21.3277 6.90479 22.0952 7.6723 22.0952 8.61907C22.0952 9.56584 21.3277 10.3334 20.3809 10.3334H11.3333C10.2814 10.3334 9.42857 11.1861 9.42857 12.2381V17.6667C9.42857 18.7186 10.2814 19.5714 11.3333 19.5714H20.3809C21.3277 19.5714 22.0952 20.339 22.0952 21.2857C22.0952 22.2325 21.3277 23 20.3809 23H11.3333C8.3878 23 6 20.6122 6 17.6667V12.2381Z" fill="#FFCB46"/>
<path fill-rule="evenodd" clip-rule="evenodd" d="M33.0476 9.42857C29.9969 9.42857 27.5238 11.9017 27.5238 14.9524C27.5238 18.0031 29.9969 20.4762 33.0476 20.4762C36.0983 20.4762 38.5714 18.0031 38.5714 14.9524C38.5714 11.9017 36.0983 9.42857 33.0476 9.42857ZM24.0952 14.9524C24.0952 10.0081 28.1033 6 33.0476 6C37.9918 6 42 10.0081 42 14.9524C42 19.8966 37.9918 23.9048 33.0476 23.9048C28.1033 23.9048 24.0952 19.8966 24.0952 14.9524Z" fill="#FFCB46"/>
<path d="M33.0478 17.6666C34.5468 17.6666 35.7621 16.4514 35.7621 14.9523C35.7621 13.4533 34.5468 12.238 33.0478 12.238C31.5487 12.238 30.3335 13.4533 30.3335 14.9523C30.3335 16.4514 31.5487 17.6666 33.0478 17.6666Z" fill="#FFCB46"/>
</svg>
