<svg width="48" height="48" viewBox="0 0 48 48" fill="none" xmlns="http://www.w3.org/2000/svg">
<path fill-rule="evenodd" clip-rule="evenodd" d="M24.1067 4.12973L23.5072 5.44922L23.0215 4.08378C23.3755 3.95783 23.7646 3.9743 24.1067 4.12973ZM23.5072 42.5507C23.0215 43.9161 23.0207 43.9158 23.0199 43.9156L23.0136 43.9133L23.0014 43.9089L22.964 43.895C22.9333 43.8835 22.8915 43.8675 22.8392 43.8469C22.7345 43.8055 22.5879 43.7453 22.4052 43.6649C22.04 43.5041 21.5294 43.2617 20.9219 42.9259C19.7092 42.2554 18.0964 41.2047 16.4817 39.6754C13.23 36.5957 10 31.5946 10 23.9999C10 16.4053 13.23 11.4042 16.4817 8.32451C18.0964 6.7952 19.7092 5.74449 20.9219 5.074C21.5294 4.73813 22.04 4.49574 22.4052 4.33498C22.5879 4.25454 22.7345 4.19438 22.8392 4.15303C22.8915 4.13235 22.9333 4.11637 22.964 4.10489L23.0014 4.09102L23.0136 4.08658L23.0181 4.08498L23.0199 4.08433C23.0207 4.08404 23.0215 4.08378 23.5072 5.44922C24.1067 4.12973 24.1073 4.13002 24.108 4.13032L24.1096 4.13104L24.1136 4.13286L24.1248 4.13805L24.1602 4.15462C24.1895 4.16842 24.23 4.18777 24.2809 4.21273C24.3826 4.26265 24.5263 4.33506 24.7058 4.43054C25.0647 4.62138 25.5682 4.90501 26.1682 5.28601C27.3658 6.04652 28.9611 7.20341 30.5592 8.79576C33.7606 11.9857 37.0145 16.972 37.0145 23.9999C37.0145 31.0279 33.7606 36.0142 30.5592 39.2041C28.9611 40.7965 27.3658 41.9534 26.1682 42.7139C25.5682 43.0949 25.0647 43.3785 24.7058 43.5694C24.5263 43.6648 24.3826 43.7372 24.2808 43.7871C24.23 43.8121 24.1895 43.8315 24.1602 43.8453L24.1248 43.8618L24.1136 43.867L24.108 43.8696C24.1073 43.8699 24.1067 43.8701 23.5072 42.5507ZM23.5072 42.5507L23.0215 43.9161C23.3755 44.0421 23.7646 44.0256 24.1067 43.8701L23.5072 42.5507ZM23.4466 40.9555C23.7409 40.7962 24.141 40.5676 24.6144 40.267C25.6776 39.5918 27.0969 38.5621 28.5133 37.1509C31.3408 34.3335 34.1159 30.0445 34.1159 23.9999C34.1159 17.9554 31.3408 13.6664 28.5133 10.849C27.0969 9.43778 25.6776 8.40807 24.6144 7.73289C24.141 7.43228 23.7409 7.20364 23.4466 7.04434C23.1608 7.17399 22.7768 7.36053 22.3244 7.61066C21.2763 8.19017 19.8746 9.10323 18.4749 10.429C15.6975 13.0594 12.8986 17.3337 12.8986 23.9999C12.8986 30.6662 15.6975 34.9404 18.4749 37.5709C19.8746 38.8967 21.2763 39.8097 22.3244 40.3892C22.7768 40.6394 23.1608 40.8259 23.4466 40.9555Z" fill="#1C6BDB"/>
<path fill-rule="evenodd" clip-rule="evenodd" d="M29.1699 29.4678C29.7358 30.0338 29.7358 30.9514 29.1699 31.5174L24.5322 36.1551C23.9662 36.7211 23.0486 36.7211 22.4826 36.1551C21.9166 35.5891 21.9166 34.6715 22.4826 34.1055L27.1203 29.4678C27.6862 28.9018 28.6039 28.9018 29.1699 29.4678Z" fill="#1C6BDB"/>
<path fill-rule="evenodd" clip-rule="evenodd" d="M17.8449 22.9751C18.4109 22.4091 19.3285 22.4091 19.8945 22.9751L24.5322 27.6128C25.0981 28.1787 25.0981 29.0964 24.5322 29.6623C23.9662 30.2283 23.0486 30.2283 22.4826 29.6623L17.8449 25.0247C17.2789 24.4587 17.2789 23.5411 17.8449 22.9751Z" fill="#1C6BDB"/>
<path fill-rule="evenodd" clip-rule="evenodd" d="M29.1699 17.4099C29.7358 17.9759 29.7358 18.8935 29.1699 19.4595L24.5322 24.0972C23.9662 24.6631 23.0486 24.6631 22.4826 24.0972C21.9166 23.5312 21.9166 22.6136 22.4826 22.0476L27.1203 17.4099C27.6863 16.8439 28.6039 16.8439 29.1699 17.4099Z" fill="#1C6BDB"/>
<path fill-rule="evenodd" clip-rule="evenodd" d="M23.5074 13.2751C24.3078 13.2751 24.9567 13.924 24.9567 14.7244V42.5505C24.9567 43.3509 24.3078 43.9998 23.5074 43.9998C22.707 43.9998 22.0581 43.3509 22.0581 42.5505V14.7244C22.0581 13.924 22.707 13.2751 23.5074 13.2751Z" fill="#1C6BDB"/>
</svg>
